<?xml version="1.0" encoding="utf-8"?>
<!-- Generator: Adobe Illustrator 12.0.0, SVG Export Plug-In . SVG Version: 6.00 Build 51448)  -->
<!DOCTYPE svg PUBLIC "-//W3C//DTD SVG 1.1 Tiny//EN" "http://www.w3.org/Graphics/SVG/1.1/DTD/svg11-tiny.dtd" [
	<!ENTITY ns_svg "http://www.w3.org/2000/svg">
	<!ENTITY ns_xlink "http://www.w3.org/1999/xlink">
]>
<svg  version="1.1" baseProfile="tiny" id="Layer_1" xmlns="&ns_svg;" xmlns:xlink="&ns_xlink;" viewBox="0 0 243.367 229.042">
<path fill="#DA9C45" d="M243.367,169.327V93.6L121.609,34.32L0.007,93.6v75.727c28.592,35.618,72.459,58.434,121.68,58.434
	C170.906,227.76,214.775,204.945,243.367,169.327z"/>
<path fill="#F3F3F3" d="M24.968,0h196.56c3.443,0,6.24,2.792,6.24,6.24v143.52c0,3.443-2.797,6.24-6.24,6.24H24.968
	c-3.444,0-6.24-2.797-6.24-6.24V6.24C18.728,2.792,21.523,0,24.968,0z"/>
<path fill="#29A6D1" d="M84.247,15.6h21.841L118.567,0h-21.84L84.247,15.6z M177.848,0l-12.48,15.6h21.84L199.688,0H177.848z
	 M18.728,6.24v9.36h9.36L40.567,0h-15.6C21.523,0,18.728,2.792,18.728,6.24z"/>
<path fill="#E2584D" d="M124.808,15.6h21.84L159.128,0h-21.841L124.808,15.6z M43.688,15.6h21.84L78.008,0h-21.84L43.688,15.6z
	 M221.527,0h-3.12l-12.479,15.6h21.84V6.24C227.768,2.792,224.971,0,221.527,0z"/>
<path fill="#DFE1E2" d="M195.008,62.4h-53.04c-2.584,0-4.681,2.093-4.681,4.68c0,2.587,2.097,4.68,4.681,4.68h53.04
	c2.583,0,4.68-2.093,4.68-4.68C199.688,64.494,197.591,62.4,195.008,62.4z M185.647,81.12h-43.68c-2.584,0-4.681,2.096-4.681,4.677
	c0,2.586,2.097,4.683,4.681,4.683h43.68c2.584,0,4.68-2.096,4.68-4.683C190.327,83.216,188.231,81.12,185.647,81.12z M87.421,68.515
	L89.549,79.7L71.768,53.037l-24.96,37.44c0,3.446,16.062,6.24,35.88,6.24s35.88-2.794,35.88-6.24l-21.84-31.2L87.421,68.515z
	 M90.487,53.037c3.444,0,6.24-2.795,6.24-6.24c0-3.445-2.796-6.24-6.24-6.24s-6.24,2.795-6.24,6.24
	C84.247,50.242,87.043,53.037,90.487,53.037z M141.968,53.04h53.04c2.583,0,4.68-2.093,4.68-4.68c0-2.587-2.097-4.68-4.68-4.68
	h-53.04c-2.584,0-4.681,2.093-4.681,4.68C137.287,50.947,139.384,53.04,141.968,53.04z"/>
<path fill="#F3B45A" d="M243.367,169.327V93.6l-121.758,59.277L0.007,93.6L0,229.042L243.367,169.327z"/>
<path fill="#F5C37A" d="M243.367,93.6L0,229.042l243.367-0.576V93.6z"/>
</svg>
