<?xml version="1.0" encoding="utf-8"?>
<!-- Generator: Adobe Illustrator 12.0.0, SVG Export Plug-In . SVG Version: 6.00 Build 51448)  -->
<!DOCTYPE svg PUBLIC "-//W3C//DTD SVG 1.1 Tiny//EN" "http://www.w3.org/Graphics/SVG/1.1/DTD/svg11-tiny.dtd" [
	<!ENTITY ns_svg "http://www.w3.org/2000/svg">
	<!ENTITY ns_xlink "http://www.w3.org/1999/xlink">
]>
<svg  version="1.1" baseProfile="tiny" id="Layer_1" xmlns="&ns_svg;" xmlns:xlink="&ns_xlink;" viewBox="0 0 243.367 229.042">
<g>
	<g>
		<path fill="#D19281" stroke="#000000" d="M34.164,113.831c0,0-34.58-30.841-33.645-4.673s25.233,39.252,25.233,39.252
			s-12.149,7.477-6.542,17.757c5.607,10.281,19.626-4.673,19.626-4.673L34.164,113.831z"/>
		<path fill="#97685E" d="M34.258,144.471l-2.463-20.124c0,0-17.228-16.257-16.735-2.464c0.493,13.794,13.301,20.69,13.301,20.69"/>
	</g>
	<g>
		<path fill="#D19281" stroke="#000000" d="M234.181,113.831c0,0,34.58-30.841,33.646-4.673s-25.233,39.252-25.233,39.252
			s12.149,7.477,6.542,17.757s-19.626-4.673-19.626-4.673L234.181,113.831z"/>
		<path fill="#97685E" d="M234.087,144.471l2.463-20.124c0,0,17.228-16.257,16.734-2.464c-0.492,13.794-13.301,20.69-13.301,20.69"
			/>
	</g>
</g>
<ellipse fill="#D19281" stroke="#000000" cx="134.172" cy="136.5" rx="102" ry="136"/>
<g>
	<path d="M134.582,220.966c-56.333,0-102-21.889-102-97c0,0-2.279,38.099-1.536,43.544l2.228-3.217c0,0-0.99,14.85,0.743,22.275
		l1.98-3.959c0,0,0.99,19.553,3.218,23.514l2.475-3.961c0,0-1.485,14.109,4.703,25.246l2.475-5.939c0,0,2.475,14.85,7.178,20.543
		l1.98-4.455c0,0,2.228,7.92,8.416,14.85l0.742-3.711c0,0,2.228,12.127,12.623,19.305l-0.495-4.949c0,0,7.178,12.869,20.296,18.314
		l-0.248-4.207c0,0,21.573,14.623,34.939,15.861"/>
	<path d="M133.763,220.966c56.333,0,102-21.889,102-97c0,0,2.278,38.099,1.536,43.544l-2.228-3.217c0,0,0.989,14.85-0.743,22.275
		l-1.979-3.959c0,0-0.99,19.553-3.218,23.514l-2.475-3.961c0,0,1.484,14.109-4.703,25.246l-2.475-5.939
		c0,0-2.475,14.85-7.178,20.543l-1.98-4.455c0,0-2.229,7.92-8.416,14.85l-0.742-3.711c0,0-2.228,12.127-12.623,19.305l0.494-4.949
		c0,0-7.178,12.869-20.295,18.314l0.247-4.207c0,0-21.573,14.623-34.938,15.861"/>
</g>
<ellipse cx="134.172" cy="214.883" rx="56.542" ry="37.383"/>
<g>
	<path d="M152.253,90.553c0,0,26.699,7.162,40.046,9.029c22.462,3.141,24.928,28.844,24.928,28.844s-6.953-19.654-21.318-21.305
		c-9.285-1.066-43.854-4.492-43.854-4.492L152.253,90.553z"/>
	<path d="M116.092,90.553c0,0-26.698,7.162-40.046,9.029c-22.461,3.141-24.928,28.844-24.928,28.844s6.953-19.654,21.318-21.305
		c9.285-1.066,43.854-4.492,43.854-4.492L116.092,90.553z"/>
</g>
<path fill="#FFFFFF" stroke="#000000" d="M176.29,207.883c0,0-18.855,12.149-42.117,12.149c-23.262,0-42.119-12.149-42.119-12.149
	H176.29z"/>
<text transform="matrix(1 0 0 1 66.0254 164.8521)" font-family="'Myriad-Roman'" font-size="88.7925">&lt;/&gt;</text>
</svg>
