<?xml version="1.0" encoding="utf-8"?>
<?xml-stylesheet href="../../styles/svg-only.css" type="text/css"?>
<!-- Generator: Adobe Illustrator 12.0.0, SVG Export Plug-In . SVG Version: 6.00 Build 51448)  -->
<!DOCTYPE svg PUBLIC "-//W3C//DTD SVG 1.1//EN" "http://www.w3.org/Graphics/SVG/1.1/DTD/svg11.dtd" [
	<!ENTITY ns_svg "http://www.w3.org/2000/svg">
	<!ENTITY ns_xlink "http://www.w3.org/1999/xlink">
]>
<svg  version="1.1" xmlns="&ns_svg;" xmlns:xlink="&ns_xlink;" width="589.118" height="589.647" viewBox="0 0 589.118 589.647"
	 overflow="visible" enable-background="new 0 0 589.118 589.647" xml:space="preserve">

	<polygon class="intro__star--yellow" opacity="0.5" fill="#F7931D" points="294.56,0 340.112,154.627 467.853,56.306 413.817,208.178 574.954,203.718
		441.972,294.824 574.954,385.93 413.817,381.471 467.853,533.343 340.112,435.021 294.56,589.647 249.006,435.021 121.266,533.343 
		175.3,381.471 14.165,385.93 147.147,294.824 14.165,203.718 175.3,208.178 121.266,56.306 249.006,154.627 	"/>
	<polygon class="intro__star--blue" opacity="0.5" fill="#2274A6" points="215.423,10.819 300.808,147.545 397.47,18.544 386.185,179.347 540.21,131.798
		436.562,255.255 589.118,307.324 432.698,346.28 525.517,478.073 376.073,417.649 373.696,578.829 288.309,442.103 
		191.648,571.104 202.934,410.302 48.909,457.851 152.557,334.393 0,282.325 156.419,243.369 63.603,111.575 213.046,172 	"/>


				<path fill="#D19281" stroke="#000000" d="M171.036,254.152c0,0-42.71-38.092-41.556-5.771s31.167,48.481,31.167,48.481
					s-15.006,9.235-8.08,21.933c6.926,12.698,24.241-5.771,24.241-5.771L171.036,254.152z"/>
				<path fill="#97685E" d="M171.152,291.997l-3.042-24.856c0,0-21.278-20.079-20.669-3.043
					c0.608,17.037,16.428,25.555,16.428,25.555"/>

				<path fill="#D19281" stroke="#000000" d="M418.083,254.152c0,0,42.709-38.092,41.555-5.771s-31.164,48.481-31.164,48.481
					s15.004,9.235,8.078,21.933c-6.926,12.698-24.24-5.771-24.24-5.771L418.083,254.152z"/>
				<path fill="#97685E" d="M417.966,291.997l3.043-24.856c0,0,21.279-20.079,20.668-3.043
					c-0.607,17.037-16.428,25.555-16.428,25.555"/>

		<ellipse fill="#D19281" stroke="#000000" cx="294.56" cy="282.151" rx="125.982" ry="167.977"/>

			<path d="M295.065,386.478c-69.579,0-125.983-27.036-125.983-119.807c0,0-2.814,47.057-1.897,53.783l2.751-3.973
				c0,0-1.222,18.341,0.918,27.512l2.445-4.889c0,0,1.223,24.15,3.974,29.042l3.058-4.893c0,0-1.835,17.427,5.808,31.183
				l3.057-7.336c0,0,3.057,18.341,8.866,25.373l2.446-5.504c0,0,2.752,9.783,10.395,18.343l0.917-4.586
				c0,0,2.751,14.98,15.591,23.844l-0.611-6.111c0,0,8.865,15.895,25.068,22.619l-0.306-5.195c0,0,26.646,18.063,43.154,19.59"/>
			<path d="M294.054,386.478c69.578,0,125.982-27.036,125.982-119.807c0,0,2.814,47.057,1.896,53.783l-2.752-3.973
				c0,0,1.223,18.341-0.916,27.512l-2.445-4.889c0,0-1.223,24.15-3.975,29.042l-3.057-4.893c0,0,1.834,17.427-5.809,31.183
				l-3.057-7.336c0,0-3.057,18.341-8.865,25.373l-2.447-5.504c0,0-2.752,9.783-10.395,18.343l-0.916-4.586
				c0,0-2.75,14.98-15.59,23.844l0.609-6.111c0,0-8.865,15.895-25.066,22.619l0.305-5.195c0,0-26.646,18.063-43.152,19.59"/>

		<ellipse cx="294.56" cy="378.965" rx="69.836" ry="46.173"/>

			<path d="M316.892,225.401c0,0,32.977,8.846,49.461,11.152c27.744,3.879,30.789,35.625,30.789,35.625s-8.588-24.275-26.332-26.314
				c-11.467-1.317-54.164-5.548-54.164-5.548L316.892,225.401z"/>
			<path d="M272.228,225.401c0,0-32.976,8.846-49.462,11.152c-27.742,3.879-30.789,35.625-30.789,35.625s8.588-24.275,26.331-26.314
				c11.468-1.317,54.166-5.548,54.166-5.548L272.228,225.401z"/>

		<path fill="#FFFFFF" stroke="#000000" d="M346.581,370.319c0,0-23.29,15.006-52.02,15.006c-28.732,0-52.023-15.006-52.023-15.006
			H346.581z"/>

				<path d="M274.818,251.539c0,0-31.895,2.552-59.323,29.98c0,0,15.946-8.931,21.05-9.567c0,0,21.051,11.48,24.877-12.758
					L274.818,251.539z"/>
				<circle fill="#FFFFFF" cx="253.951" cy="263.187" r="2.524"/>
				<circle fill="#FFFFFF" cx="257.864" cy="260.368" r="1.304"/>

				<path d="M314.3,251.539c0,0,31.896,2.552,59.324,29.98c0,0-15.945-8.931-21.051-9.567c0,0-21.051,11.48-24.875-12.758
					L314.3,251.539z"/>
				<circle fill="#FFFFFF" cx="335.168" cy="263.187" r="2.524"/>
				<circle fill="#FFFFFF" cx="331.255" cy="260.368" r="1.305"/>

			<path d="M296.354,324.552c0,0-12.73,0-16.242-6.584c0,0-11.853,1.399-10.096-6.503c0,0-4.829,5.625-7.462,14.844l5.267-6.584
				c0,0,6.146,3.511,11.414,1.317C279.235,321.041,288.015,325.87,296.354,324.552z"/>
			<path d="M292.765,324.552c0,0,12.729,0,16.241-6.584c0,0,11.853,1.399,10.097-6.503c0,0,4.828,5.625,7.463,14.844l-5.268-6.584
				c0,0-6.146,3.511-11.414,1.317C309.884,321.041,301.104,325.87,292.765,324.552z"/>

</svg>
