<?xml version="1.0" encoding="utf-8"?>
<!-- Generator: Adobe Illustrator 12.0.0, SVG Export Plug-In . SVG Version: 6.00 Build 51448)  -->
<!DOCTYPE svg PUBLIC "-//W3C//DTD SVG 1.1 Tiny//EN" "http://www.w3.org/Graphics/SVG/1.1/DTD/svg11-tiny.dtd" [
	<!ENTITY ns_svg "http://www.w3.org/2000/svg">
	<!ENTITY ns_xlink "http://www.w3.org/1999/xlink">
]>
<svg  version="1.1" baseProfile="tiny" xmlns="&ns_svg;" xmlns:xlink="&ns_xlink;" viewBox="0 0 289.706 550.266">
<g id="Layer_2">
	<g>
		<path fill="#F5851F" stroke="#EE3A24" stroke-width="10" d="M140.441,366.279c0,0-31.61,54.193-27.521,92.629l19.985-18.721
			c0,0-1.19,29.577,21.229,59.036l3.039-24.84c0,0,12.945,33.157,34.898,42.781l-4.51-25.533c0,0,27.968,43.669,56.235,50.829
			c0,0-23.429-39.464-21.07-65.192l18.224,18.319c0,0,3.307-27.738-12.648-52.104l21.468,9.685c0,0-3.937-33.548-33.894-50.835
			l29.283-3.898c0,0-49.741-42.356-76.554-43.544L140.441,366.279z"/>
		<path fill="#F9ED23" d="M148.521,371.762c0,0-18.426,31.591-16.043,53.995l11.649-10.911c0,0-0.691,17.242,12.376,34.412
			l1.771-14.479c0,0,7.546,19.328,20.344,24.939l-2.629-14.884c0,0,16.303,25.455,32.78,29.628c0,0-13.657-23.006-12.279-38.001
			l10.62,10.679c0,0,1.928-16.169-7.373-30.374l12.514,5.647c0,0-2.294-19.558-19.756-29.633l17.069-2.271
			c0,0-28.996-24.691-44.627-25.385L148.521,371.762z"/>
	</g>
</g>
<g id="Layer_1">
	
		<rect x="56.222" y="96.497" transform="matrix(0.9315 -0.3637 0.3637 0.9315 -82.0884 56.0213)" fill="#FFFFFF" stroke="#0E5081" stroke-width="5" width="102.999" height="299.001"/>
	<path fill="#CB5741" d="M108.996,89.51c3.455,8.85-2.931,10.378-10.403,13.294l-81.18,31.694
		c-7.475,2.918-13.205,6.12-16.659-2.729c0,0-4.781-125.09,9.727-131.516l0,0C26.416-5.518,108.996,89.51,108.996,89.51z"/>
</g>
<g id="Layer_3">
	<g>
		<polygon fill="#0E5081" points="121.872,400.451 58.132,460.762 23.125,371.093 75.226,280.973 		"/>
		<polygon fill="#0E5081" points="201.965,369.182 289.706,370.353 254.698,280.683 155.319,249.704 		"/>
	</g>
	<circle fill="#D6ECFA" stroke="#0E5081" stroke-width="10" cx="78.69" cy="171.637" r="37.85"/>
	<circle fill="#FFFFFF" cx="74.614" cy="161.198" r="12.392"/>
</g>
</svg>
