<?xml version="1.0" encoding="utf-8"?>
<!-- Generator: Adobe Illustrator 12.0.0, SVG Export Plug-In . SVG Version: 6.00 Build 51448)  -->
<!DOCTYPE svg PUBLIC "-//W3C//DTD SVG 1.1 Tiny//EN" "http://www.w3.org/Graphics/SVG/1.1/DTD/svg11-tiny.dtd" [
	<!ENTITY ns_svg "http://www.w3.org/2000/svg">
	<!ENTITY ns_xlink "http://www.w3.org/1999/xlink">
]>
<svg  version="1.1" baseProfile="tiny" xmlns="&ns_svg;" xmlns:xlink="&ns_xlink;" viewBox="0 0 502.021 368.365">
<g id="Layer_8">
</g>
<g id="Layer_6">
	<g>
		<polygon fill="#C1C1C1" stroke="#000000" points="468.579,367.198 220.58,367.198 135.58,323.864 383.578,323.864 		"/>
		<polygon stroke="#000000" points="417.351,359.198 245.655,359.198 186.808,329.197 358.503,329.197 		"/>
	</g>
</g>
<g id="Layer_5">
	<path stroke="#FFFFFF" stroke-width="6" d="M111.454,177.095c0,0-114.087,70.277-108.236,111.899
		c5.851,41.622,163.084,51.173,163.084,51.173l14.626-33.432l43.879,0.587v-99.523L111.454,177.095z"/>
	<path fill="#D29382" d="M158.303,336.607c-3.73-3.28,14.12-29.166,14.12-29.166s8.681-7.134,30.158-10.242
		s49.171,35.326,49.171,35.326l-30.881,10.836C220.871,343.361,172.971,349.505,158.303,336.607z"/>
</g>
<g id="Layer_7">
	<path stroke="#FFFFFF" stroke-width="6" d="M288.532,69.095c0,0,23.334-4,35.334-29.333s30-38,74-36.667l-20.667,16l16,10.667
		c0,0-39.334-12-56,19.333c-11.52,21.658-35.999,22-45.333,24.667S288.532,69.095,288.532,69.095z"/>
	<path stroke="#FFFFFF" stroke-width="6" d="M296.217,68.755c0,0,35.442,9.64,68.897-18.147
		c33.454-27.789,67.063-33.832,128.09-3.17l-39.542,8.988l15.529,25.473c0,0-47.482-42.614-91.427-9.439
		c-30.374,22.932-65.035,7.398-79.91,5.042C282.979,75.146,296.217,68.755,296.217,68.755z"/>
</g>
<g id="Layer_2">
	<circle stroke="#FFFFFF" stroke-width="6" cx="200.032" cy="124.929" r="118.5"/>
</g>
<g id="Layer_1">
	<path fill="#D29382" d="M134.532,108.429l20,57c0,0,33-27,73-29c19.975-0.999,58,9,70,30l6-64
		C303.532,102.429,224.532,52.429,134.532,108.429z"/>
</g>
<g id="Layer_3">
	<path d="M217.317,127.055c-44.566,7.305-83.747-18.264-83.747-18.264v-0.73L217.317,127.055L217.317,127.055z"/>
	<path d="M235.061,125.789c40.401,2.649,73.143-23.567,73.143-23.567l-0.063-0.652L235.061,125.789L235.061,125.789z"/>
</g>
<g id="Layer_4">
	<rect x="222.194" y="188.531" fill="#C1C1C1" stroke="#000000" width="248" height="179.334"/>
	<circle fill="#FFFFFF" stroke="#000000" cx="346.526" cy="277.532" r="20.333"/>
</g>
</svg>
